# xmcd
#
# Track frame offsets: 
#        150
#        37030
#        49777
#        105625
#        126090
#        153930
#        172540
#        187911
#        204195
#        233421
#        268099
#
# Disc length: 3771 seconds
#
# Revision: 0
# Processed by: cddbd v1.5.1PL0 Copyright (c) Steve Scherf et al.
# Submitted via: ExactAudioCopy v0.95a5
#
DISCID=7f0eb90b
DTITLE=Grateful Dead - 1971-12-05 The Felt Forum New York, NY
DYEAR=1971
DGENRE=Rock
TTITLE0=Dark Star Jam > 
TTITLE1=Me And My Uncle > 
TTITLE2=Dark Star Jam > 
TTITLE3=Sitting On Top of the World 
TTITLE4=Me and Bobby McGee 
TTITLE5=Big R&R Blues 
TTITLE6=Mexicali Blues
TTITLE7=You Win Again 
TTITLE8=Not Fade Away > 
TTITLE9=Going Down The Road Feeling Bad >
TTITLE10=Not Fade Away 
EXTD=
EXTT0=
EXTT1=
EXTT2=
EXTT3=
EXTT4=
EXTT5=
EXTT6=
EXTT7=
EXTT8=
EXTT9=
EXTT10=
PLAYORDER=
